<svg width="119" height="47" viewBox="0 0 119 47" fill="none" xmlns="http://www.w3.org/2000/svg">
<g clip-path="url(#clip0_445_1403)">
<path d="M66.314 4.90323C66.5416 4.90292 66.5159 4.8634 66.6433 4.98693C66.8002 5.67108 66.727 9.03313 66.7281 9.93868L66.7309 21.7354C67.4469 20.5724 67.4521 20.1408 68.564 19.146C71.8125 16.2405 76.9156 16.6865 79.594 20.1651C80.5094 21.3543 81.4075 23.4114 81.6321 24.9215C81.8723 26.5352 81.8552 28.3794 81.762 30.015C81.4893 32.9541 79.8839 36.3235 77.6441 38.1932C77.2953 38.4643 76.9347 38.8171 76.5908 39.0665C74.0488 40.9105 70.7601 41.3481 67.7595 40.9914C65.6586 40.6938 63.6019 39.8057 62.2907 38.0365C60.3564 35.4265 60.7411 32.2281 60.752 29.1196L60.7621 20.3577L60.7742 12.1183C60.7757 10.9233 60.6877 8.93001 60.8372 7.83045C60.916 7.72721 61.1877 7.5593 61.3045 7.50581C63.0199 6.71944 64.6458 5.77474 66.314 4.90323ZM71.285 39.3044C73.5293 37.8174 74.6243 35.3892 75.0776 32.7375C75.7594 28.7442 76.1861 19.8776 70.4001 20.0245C69.5865 20.1408 68.4617 20.782 68.0161 21.4512C67.5181 22.1988 66.9395 24.3413 66.8244 25.2359C66.6909 26.2714 66.7301 27.6405 66.7301 28.7008L66.7331 33.8351L66.7307 37.3055C66.7307 37.9058 66.7136 38.5174 66.7602 39.1144C66.7751 39.3063 66.8463 39.4502 67.0029 39.5532C68.1034 40.2769 70.2137 39.8275 71.285 39.3044Z" fill="#5C4033"/>
<path d="M45.9418 21.8336C46.3154 20.9696 47.1936 19.486 47.8871 18.9058C49.3183 17.7083 51.3298 17.0582 53.1594 17.2087C54.4556 17.2687 56.0648 17.7852 56.9679 18.812C58.5603 20.6218 58.5147 23.0418 58.5159 25.2934L58.5103 30.0735L58.5153 36.5304C58.5198 37.8562 58.5568 39.3117 58.5012 40.6259C57.866 40.7365 52.987 40.8603 52.5648 40.6544C52.3061 40.3048 52.4216 37.1658 52.4164 36.4934L52.4175 26.3801C52.4205 24.8923 52.5404 21.9789 51.4804 20.8774C50.5994 19.9625 48.748 20.0358 47.8639 20.9954C45.7371 23.3033 46.0199 27.1959 46.0255 30.1263L46.0263 35.079C46.0255 36.0127 45.9829 37.5023 46.0419 38.4082C46.0356 38.7934 46.0687 40.4298 45.8695 40.6471C45.3573 40.8218 40.9598 40.7462 40.252 40.6832C39.9666 40.4725 39.9944 39.877 39.9917 39.527C39.9839 38.5277 40.0008 37.5277 39.9985 36.5282L39.9822 28.6317C39.9935 26.8764 40.046 25.0801 39.9377 23.3308C39.8632 22.1291 39.2905 20.5657 37.9953 20.3128C35.2374 19.7745 34.0723 22.6422 33.8663 24.9813C33.6839 27.048 33.6698 29.1267 33.6729 31.2027L33.6804 37.4172C33.6809 38.1456 33.7254 39.9494 33.5725 40.5986L33.5666 40.6237C32.7399 40.7754 28.4901 40.7678 27.706 40.592C27.4561 39.6168 27.5679 36.8965 27.5679 35.758L27.5677 29.3416L27.5699 22.3821C27.5699 21.7674 27.4881 18.0291 27.6817 17.8165C28.2131 17.6484 32.7845 17.7113 33.5826 17.747C33.7274 19.1985 33.5586 20.5779 33.6586 21.9696C33.8734 21.5621 34.0448 21.1072 34.2843 20.6888C35.1809 19.1616 36.7086 17.8084 38.4408 17.444C42.2746 16.6376 44.8972 17.8541 45.9418 21.8336Z" fill="#5C4033"/>
<path d="M91.7677 17.279C94.7585 17.0373 99.1286 18.1499 100.547 21.1869C101.587 23.4147 101.305 26.0793 101.281 28.5009L101.28 35.436C101.273 36.6468 101.155 38.3701 101.62 39.4417C101.836 39.5929 102.539 39.9779 102.548 40.2086C102.144 40.8678 99.6094 40.7072 98.8177 40.759C96.4587 40.9135 95.2669 40.019 95.291 37.469C93.1845 39.6963 92.2039 40.7785 89.008 41.0115C85.7922 41.2462 83.0171 39.702 82.7313 36.1541C82.6705 34.5008 82.7204 32.3838 83.9079 31.0923C86.7885 27.9612 91.9522 28.4714 94.8879 25.4062C95.5214 24.7445 95.2819 22.2771 95.2377 21.3169C95.1479 19.3521 93.8433 18.186 91.943 18.4245C88.0108 18.8773 90.3081 22.7753 88.7178 24.9254C87.2202 26.9493 83.9823 26.095 83.7335 23.4988C83.6277 22.399 83.9141 20.8646 84.6846 20.0479C86.5192 18.1022 89.2713 17.5174 91.7677 17.279ZM89.514 37.6002C91.0617 39.0744 93.1219 38.2354 94.4125 36.8414C95.0558 36.1469 95.2535 35.7055 95.2217 34.7469C95.141 32.2763 95.312 29.6816 95.2018 27.2234C95.1971 27.0997 95.1836 26.9764 95.16 26.8549C95.1425 26.8404 95.1008 26.8017 95.083 26.7969C94.6841 27.0979 94.1698 27.564 93.7829 27.8115C91.5466 29.2414 88.9569 30.4984 88.5302 33.5284C88.3398 34.8792 88.418 36.656 89.514 37.6002Z" fill="#5C4033"/>
<path d="M12.3872 9.60554C12.9085 9.57431 13.4171 9.56377 13.9375 9.56969C14.8961 9.58054 15.1627 9.87581 15.4977 10.7524C16.9234 14.5016 18.2954 18.2724 19.6129 22.0636C19.8057 22.6018 19.9641 23.1611 20.1571 23.6884L23.3097 32.1244L25.1031 36.8755C25.3433 37.5147 26.2944 39.8927 26.3189 40.4414C26.2693 40.4994 26.2529 40.5265 26.1821 40.5516C25.5344 40.7803 20.2637 40.8548 19.7302 40.5673C19.3483 40.3612 19.1289 39.3779 19 38.9776C18.8052 38.43 18.5868 37.9718 18.3907 37.4487L16.7283 32.95C16.5633 32.5104 16.1281 31.6183 16.076 31.2095C14.8105 31.0261 13.6994 31.1144 12.4432 31.1066C9.97838 31.0915 7.50887 31.0123 5.04479 31.1315C4.7323 31.1466 3.74931 31.2073 3.51218 31.0558C3.41473 30.778 3.50595 30.4595 3.61132 30.195C4.62559 27.6495 5.68674 25.1212 6.73044 22.59L10.219 13.9897C10.3903 13.5756 10.6398 13.0087 10.783 12.5765C11.101 11.6168 11.4132 10.714 11.9121 9.83036C12.001 9.67292 12.2241 9.63501 12.3872 9.60554ZM4.78578 30.1952C6.58747 30.2111 8.38926 30.2147 10.191 30.2059L13.4554 30.2053C14.0466 30.2048 15.1984 30.2341 15.7373 30.1075C15.0557 28.3854 10.8909 16.3306 10.4622 15.9406C10.2416 16.3607 10.1147 16.68 9.95858 17.1379C9.13456 19.5553 7.99115 21.8637 7.12035 24.2712C7.01904 24.5511 6.92121 24.8322 6.80774 25.1028L5.71954 27.6673C5.35856 28.5047 4.94005 29.298 4.78578 30.1952Z" fill="#5C4033"/>
<path d="M13.5655 0L5.90527 7.55686H8.73366L13.5655 2.79023V0Z" fill="#5C4033"/>
<path d="M20.843 7.55686L13.5391 0V2.79023L18.1462 7.55686H20.843Z" fill="#5C4033"/>
<path d="M2.35559 35.1223C2.65996 35.0856 3.09992 35.1363 3.41049 35.1756C5.16842 35.4115 6.84163 36.0979 8.27839 37.172C9.42901 38.0263 10.3494 38.921 11.1453 40.1286C11.2535 40.2929 11.4169 40.336 11.4479 40.5302C11.2716 40.6711 9.45129 40.6176 9.11269 40.6169C6.10951 40.6595 3.10593 40.6685 0.102539 40.6438C0.410828 39.4397 1.25371 37.7799 1.72541 36.6034C1.84083 36.3157 2.21772 35.3097 2.35559 35.1223Z" fill="#5C4033"/>
<path d="M112.775 18.2372C111.785 18.9742 109.202 24.9644 109.212 25.5175C109.223 26.0707 109.202 27.8213 109.202 27.8213C109.202 27.8213 109.546 24.5746 110.984 23.674C112.421 22.7736 114.121 23.237 114.903 23.674C115.684 24.1112 116.292 24.0567 117.041 23.674C119.672 22.3291 119.336 19.1397 117.219 17.8685C115.42 16.7887 113.766 17.5002 112.775 18.2372Z" fill="#5C4033"/>
<path d="M109.202 17.3162H103.502V40.724H109.202V17.3162Z" fill="#5C4033"/>
<path d="M0 44.3159H83.4859" stroke="#5C4033"/>
<path d="M89.7338 46.5659L89.0101 45.8485C88.8331 45.8968 88.6526 45.9208 88.4687 45.9208C88.1319 45.9208 87.8248 45.8434 87.5472 45.6885C87.2694 45.5304 87.049 45.3118 86.886 45.0331C86.7263 44.7511 86.6465 44.4345 86.6465 44.0835C86.6465 43.7326 86.7263 43.4178 86.886 43.1391C87.049 42.8571 87.2694 42.6385 87.5472 42.4837C87.8248 42.3256 88.1319 42.2463 88.4687 42.2463C88.8087 42.2463 89.1176 42.3256 89.3954 42.4837C89.673 42.6385 89.8917 42.8553 90.0514 43.134C90.2109 43.4126 90.2909 43.7293 90.2909 44.0835C90.2909 44.4277 90.2144 44.7373 90.0618 45.0125C89.9089 45.2878 89.699 45.5046 89.4318 45.6627L90.3481 46.5659H89.7338ZM87.1307 44.0835C87.1307 44.3692 87.1879 44.6203 87.3025 44.837C87.4204 45.0538 87.5801 45.2208 87.7814 45.3376C87.9862 45.4546 88.2152 45.5131 88.4687 45.5131C88.7219 45.5131 88.9493 45.4546 89.1507 45.3376C89.3554 45.2208 89.5151 45.0538 89.6297 44.837C89.7476 44.6203 89.8067 44.3692 89.8067 44.0835C89.8067 43.7945 89.7476 43.5435 89.6297 43.3301C89.5151 43.1133 89.3571 42.9465 89.1559 42.8295C88.9545 42.7126 88.7254 42.654 88.4687 42.654C88.2117 42.654 87.9826 42.7126 87.7814 42.8295C87.5801 42.9465 87.4204 43.1133 87.3025 43.3301C87.1879 43.5435 87.1307 43.7945 87.1307 44.0835ZM94.3417 43.0565V45.8847H93.8679V45.4666C93.7777 45.6111 93.6509 45.7247 93.4879 45.8072C93.3281 45.8865 93.1511 45.9259 92.9568 45.9259C92.7346 45.9259 92.5351 45.8813 92.3581 45.7918C92.1811 45.6989 92.0405 45.5614 91.9364 45.3789C91.8358 45.1966 91.7854 44.9747 91.7854 44.7132V43.0565H92.254V44.6512C92.254 44.9299 92.3252 45.145 92.4674 45.2963C92.6097 45.4443 92.8042 45.5182 93.0505 45.5182C93.304 45.5182 93.5035 45.4408 93.6493 45.286C93.795 45.1312 93.8679 44.9059 93.8679 44.6099V43.0565H94.3417ZM95.8496 44.4603C95.8496 44.1713 95.9088 43.9184 96.0267 43.7016C96.1447 43.4816 96.3061 43.3113 96.5108 43.1907C96.7191 43.0704 96.95 43.0101 97.2033 43.0101C97.4532 43.0101 97.6702 43.0635 97.8541 43.1701C98.0381 43.2768 98.1752 43.411 98.2653 43.5726V43.0565H98.7443V45.8847H98.2653V45.3583C98.1716 45.5234 98.0311 45.6611 97.8436 45.7711C97.6597 45.8778 97.4446 45.9311 97.1981 45.9311C96.9448 45.9311 96.7157 45.8692 96.5108 45.7453C96.3061 45.6215 96.1447 45.4478 96.0267 45.2241C95.9088 45.0005 95.8496 44.746 95.8496 44.4603ZM98.2653 44.4654C98.2653 44.2522 98.222 44.0664 98.1352 43.9081C98.0485 43.7499 97.9305 43.6294 97.7812 43.5468C97.6354 43.4609 97.474 43.4178 97.297 43.4178C97.12 43.4178 96.9586 43.4591 96.8128 43.5417C96.667 43.6242 96.5508 43.7448 96.464 43.9029C96.3773 44.0612 96.3338 44.247 96.3338 44.4603C96.3338 44.677 96.3773 44.8663 96.464 45.028C96.5508 45.1863 96.667 45.3085 96.8128 45.3944C96.9586 45.477 97.12 45.5182 97.297 45.5182C97.474 45.5182 97.6354 45.477 97.7812 45.3944C97.9305 45.3085 98.0485 45.1863 98.1352 45.028C98.222 44.8663 98.2653 44.6789 98.2653 44.4654ZM100.253 44.4603C100.253 44.1713 100.312 43.9184 100.43 43.7016C100.548 43.4816 100.709 43.3113 100.914 43.1907C101.122 43.0704 101.355 43.0101 101.612 43.0101C101.834 43.0101 102.04 43.0617 102.231 43.1649C102.422 43.2648 102.568 43.3972 102.669 43.5623V42.0657H103.148V45.8847H102.669V45.3531C102.575 45.5217 102.436 45.6611 102.252 45.7711C102.068 45.8778 101.853 45.9311 101.607 45.9311C101.353 45.9311 101.122 45.8692 100.914 45.7453C100.709 45.6215 100.548 45.4478 100.43 45.2241C100.312 45.0005 100.253 44.746 100.253 44.4603ZM102.669 44.4654C102.669 44.2522 102.625 44.0664 102.539 43.9081C102.452 43.7499 102.334 43.6294 102.185 43.5468C102.039 43.4609 101.877 43.4178 101.7 43.4178C101.523 43.4178 101.362 43.4591 101.216 43.5417C101.07 43.6242 100.954 43.7448 100.867 43.9029C100.781 44.0612 100.737 44.247 100.737 44.4603C100.737 44.677 100.781 44.8663 100.867 45.028C100.954 45.1863 101.07 45.3085 101.216 45.3944C101.362 45.477 101.523 45.5182 101.7 45.5182C101.877 45.5182 102.039 45.477 102.185 45.3944C102.334 45.3085 102.452 45.1863 102.539 45.028C102.625 44.8663 102.669 44.6789 102.669 44.4654ZM105.307 43.5159C105.39 43.3542 105.509 43.2287 105.661 43.1391C105.817 43.0497 106.006 43.0049 106.229 43.0049V43.49H106.104C105.573 43.49 105.307 43.7757 105.307 44.3467V45.8847H104.833V43.0565H105.307V43.5159ZM108.905 45.9311C108.638 45.9311 108.395 45.871 108.176 45.7505C107.961 45.6301 107.791 45.4598 107.666 45.2396C107.544 45.016 107.484 44.7579 107.484 44.4654C107.484 44.1764 107.546 43.9219 107.671 43.7016C107.799 43.4781 107.973 43.3078 108.192 43.1907C108.41 43.0704 108.655 43.0101 108.926 43.0101C109.196 43.0101 109.441 43.0704 109.66 43.1907C109.878 43.3078 110.05 43.4764 110.175 43.6965C110.304 43.9167 110.368 44.1731 110.368 44.4654C110.368 44.7579 110.302 45.016 110.17 45.2396C110.042 45.4598 109.866 45.6301 109.644 45.7505C109.422 45.871 109.176 45.9311 108.905 45.9311ZM108.905 45.5182C109.075 45.5182 109.235 45.4788 109.384 45.3995C109.533 45.3205 109.653 45.2018 109.743 45.0434C109.837 44.8853 109.884 44.6925 109.884 44.4654C109.884 44.2384 109.839 44.0458 109.748 43.8874C109.658 43.7293 109.54 43.6122 109.394 43.5365C109.248 43.4574 109.091 43.4178 108.92 43.4178C108.747 43.4178 108.587 43.4574 108.442 43.5365C108.299 43.6122 108.185 43.7293 108.098 43.8874C108.011 44.0458 107.968 44.2384 107.968 44.4654C107.968 44.696 108.009 44.8905 108.093 45.0486C108.18 45.2069 108.294 45.3256 108.436 45.4047C108.579 45.4805 108.735 45.5182 108.905 45.5182ZM112.886 45.9311C112.667 45.9311 112.471 45.895 112.297 45.8227C112.124 45.7472 111.987 45.6439 111.886 45.5131C111.786 45.3789 111.73 45.2259 111.72 45.0538H112.209C112.223 45.1949 112.289 45.3101 112.407 45.3995C112.528 45.4891 112.686 45.5337 112.881 45.5337C113.061 45.5337 113.203 45.4943 113.308 45.415C113.412 45.336 113.464 45.2362 113.464 45.1157C113.464 44.9918 113.408 44.9008 113.297 44.8422C113.186 44.7802 113.014 44.7202 112.782 44.6615C112.57 44.6066 112.396 44.5515 112.261 44.4964C112.129 44.438 112.015 44.3537 111.917 44.2435C111.824 44.13 111.777 43.9822 111.777 43.7997C111.777 43.6552 111.82 43.5229 111.907 43.4023C111.994 43.282 112.117 43.1874 112.277 43.1185C112.436 43.0462 112.619 43.0101 112.823 43.0101C113.139 43.0101 113.394 43.0894 113.589 43.2475C113.783 43.4058 113.887 43.6226 113.901 43.8978H113.427C113.417 43.7499 113.356 43.6312 113.245 43.5417C113.138 43.4523 112.992 43.4075 112.808 43.4075C112.638 43.4075 112.502 43.4436 112.402 43.5159C112.301 43.5881 112.251 43.6828 112.251 43.7997C112.251 43.8926 112.28 43.97 112.339 44.0319C112.402 44.0905 112.478 44.1386 112.568 44.1764C112.662 44.2109 112.79 44.2505 112.953 44.2951C113.158 44.3502 113.325 44.4053 113.453 44.4603C113.582 44.5119 113.691 44.5911 113.781 44.6977C113.875 44.8044 113.924 44.9437 113.927 45.1157C113.927 45.2705 113.884 45.4099 113.797 45.5337C113.71 45.6576 113.587 45.7556 113.427 45.8279C113.271 45.8968 113.091 45.9311 112.886 45.9311Z" fill="#5C4033"/>
</g>
<defs>
<clipPath id="clip0_445_1403">
<rect width="119" height="47" fill="white"/>
</clipPath>
</defs>
</svg>
