<svg width="15" height="15" viewBox="0 0 15 15" fill="none" xmlns="http://www.w3.org/2000/svg">
<path d="M7.5 0.5C11.4226 0.5 14.5 3.31362 14.5 6.66699C14.4999 7.63934 14.1133 8.57221 13.4258 9.25977C12.7382 9.9472 11.8053 10.333 10.833 10.333H9.3584C8.89436 10.333 8.44926 10.5176 8.12109 10.8457C7.79298 11.1738 7.60848 11.619 7.6084 12.083C7.6084 12.5332 7.78534 12.9376 8.04395 13.2412L8.05078 13.248L8.05762 13.2559C8.17616 13.3843 8.25 13.5562 8.25 13.75C8.25 13.9489 8.17093 14.1396 8.03027 14.2803C7.88962 14.4209 7.69891 14.5 7.5 14.5C5.64348 14.5 3.86256 13.7629 2.5498 12.4502C1.23705 11.1374 0.5 9.35652 0.5 7.5L0.508789 7.15332C0.594524 5.42303 1.319 3.78061 2.5498 2.5498C3.86256 1.23705 5.64348 0.5 7.5 0.5ZM2.91699 4.5C2.45294 4.5 2.00786 4.68461 1.67969 5.0127C1.3515 5.34088 1.16699 5.78587 1.16699 6.25C1.16699 6.71413 1.3515 7.15912 1.67969 7.4873C2.00786 7.81539 2.45294 8 2.91699 8C3.381 7.99991 3.82619 7.81542 4.1543 7.4873C4.48238 7.15913 4.66699 6.71405 4.66699 6.25C4.66699 5.78595 4.48238 5.34087 4.1543 5.0127C3.82618 4.68458 3.381 4.50009 2.91699 4.5ZM12.083 4.5C11.619 4.50009 11.1738 4.68458 10.8457 5.0127C10.5176 5.34087 10.333 5.78595 10.333 6.25C10.333 6.71405 10.5176 7.15913 10.8457 7.4873C11.1738 7.81542 11.619 7.99991 12.083 8C12.5471 8 12.9921 7.81539 13.3203 7.4873C13.6485 7.15912 13.833 6.71413 13.833 6.25C13.833 5.78587 13.6485 5.34088 13.3203 5.0127C12.9921 4.68461 12.5471 4.5 12.083 4.5ZM5.41699 1.16699C4.95286 1.16699 4.50788 1.3515 4.17969 1.67969C3.8515 2.00788 3.66699 2.45286 3.66699 2.91699C3.66708 3.381 3.85157 3.82618 4.17969 4.1543C4.50785 4.48228 4.95302 4.66699 5.41699 4.66699C5.881 4.66691 6.32618 4.48241 6.6543 4.1543C6.98241 3.82618 7.16691 3.381 7.16699 2.91699C7.16699 2.45302 6.98228 2.00785 6.6543 1.67969C6.32618 1.35158 5.881 1.16708 5.41699 1.16699ZM9.58301 1.16699C9.119 1.16708 8.67382 1.35158 8.3457 1.67969C8.01772 2.00785 7.83301 2.45302 7.83301 2.91699C7.83309 3.381 8.01759 3.82618 8.3457 4.1543C8.67382 4.48241 9.119 4.66691 9.58301 4.66699C10.047 4.66699 10.4922 4.48228 10.8203 4.1543C11.1484 3.82618 11.3329 3.381 11.333 2.91699C11.333 2.45286 11.1485 2.00788 10.8203 1.67969C10.4921 1.3515 10.0471 1.16699 9.58301 1.16699Z" fill="#5C4033" stroke="#5C4033"/>
</svg>
