<svg width="18" height="18" viewBox="0 0 18 18" fill="none" xmlns="http://www.w3.org/2000/svg">
<g clip-path="url(#clip0_445_1418)">
<path d="M18 0H0V18H18V0Z" fill="white" fill-opacity="0.01"/>
<path d="M12.75 2.25H5.25C3.59314 2.25 2.25 3.59314 2.25 5.25V12.75C2.25 14.4069 3.59314 15.75 5.25 15.75H12.75C14.4069 15.75 15.75 14.4069 15.75 12.75V5.25C15.75 3.59314 14.4069 2.25 12.75 2.25Z" stroke="#5C4033" stroke-linejoin="round"/>
<path d="M9 12C10.6569 12 12 10.6569 12 9C12 7.34314 10.6569 6 9 6C7.34314 6 6 7.34314 6 9C6 10.6569 7.34314 12 9 12Z" stroke="#5C4033" stroke-linejoin="round"/>
<path d="M13.125 5.625C13.5392 5.625 13.875 5.28922 13.875 4.875C13.875 4.46078 13.5392 4.125 13.125 4.125C12.7108 4.125 12.375 4.46078 12.375 4.875C12.375 5.28922 12.7108 5.625 13.125 5.625Z" fill="#5C4033"/>
</g>
<defs>
<clipPath id="clip0_445_1418">
<rect width="18" height="18" fill="white"/>
</clipPath>
</defs>
</svg>
